<?xml version="1.0" encoding="UTF-8"?><svg id="Layer_1" xmlns="http://www.w3.org/2000/svg" viewBox="0 0 611.84 291.38"><defs><style>.cls-1{letter-spacing:-.08em;}.cls-2{fill:#606060;}.cls-2,.cls-3,.cls-4,.cls-5,.cls-6{stroke-width:0px;}.cls-3{fill:#d10000;}.cls-4{fill:#e20000;}.cls-7{fill:#58595b;font-family:LeagueSpartan-Regular, 'League Spartan Thin';font-size:85.37px;font-variation-settings:'wght' 400;}.cls-5{fill:#d13030;}.cls-6{fill:#c10505;}</style></defs><path class="cls-5" d="m163.31,80.86c-1.04.03-12.51-19.3-33.82-23.25C108.19,53.67,57.24,33.15,36.19,0c0,0,7.65,32.29,36.93,54.96l-20.04-8.5s18.81,46.59,107.75,71.31l2.48-36.91Z"/><path class="cls-4" d="m202.7,42.06c-5.27-7.79-20.37-11.39-36.64,4.08-2.11,2-3.92,4.07-5.51,6.18h0c-2.48,3.65-4.71,7.56-6.72,11.64-3.49,7.86-5.53,15.87-8.94,23.2-4.63,15.42-7.14,30.77-8.72,41.85-2.37,16.61-16.51,30.74-21.11,34.95,0,.12,0,.25,0,.37-.49.3-.98.61-1.46.92h0c-12.03,7.63-20.09,15.23-20.09,15.23-27.3,22.46-19.91,60.29-19.91,60.29-3.13-42.37,30.14-56.87,30.14-56.87-36.4,30.14-23.03,77.63-23.03,77.63-3.41-36.68,17.35-58.22,17.35-58.22-21.61,43.86-1.71,88.08-1.71,88.08-6.68-26.25-4.35-48.03,2.74-65.92.34-.57,23.22-39.15,65.37-64.82.02-.01.03-.02.05-.03,32.05-19.58,27.81-56.91,25.4-68.86-1.88-9.28-.36-20.09.41-24.45.85-5.81,4.2-12.02,7.82-16.41,5.03-6.09,13.58-5.95,13.58-5.95-1.94-2.06-9.01-2.88-9.01-2.88Z"/><path class="cls-2" d="m251.03,86.59c0-14.01,4.91-25.84,21.84-25.84,7.82,0,14.74,2.37,18.56,5.1l4.55-12.19c-4.55-3.27-14.19-5.82-22.38-5.82-24.75,0-38.39,15.1-38.39,38.39v4.73h-12.37v12.19h12.37v75.88h15.83v-75.88h35.3v75.88h15.83v-88.07h-51.13v-4.37Z"/><path class="cls-2" d="m372.57,88.96c-14.56,0-24.75,8.19-29.11,16.56h-.36l-.91-14.56h-14.19c.55,7.28.73,14.74.73,23.84v64.23h16.01v-52.95c0-2.73.36-5.46,1.09-7.46,2.73-8.91,10.92-16.38,21.47-16.38,15.1,0,20.38,11.83,20.38,26.02v50.77h16.01v-52.59c0-30.2-18.92-37.48-31.12-37.48Z"/><path class="cls-2" d="m544.16,90.96h-19.29l-25.84,30.39c-2.55,3.09-5.64,6.91-7.82,10.01h-.36V49.84h-15.83v129.19h15.83v-33.12l8.19-9.1,30.39,42.21h19.47l-38.76-51.86,34.03-36.21Z"/><path class="cls-2" d="m588.73,127.9c-11.46-4.37-16.74-7.64-16.74-14.92,0-6.55,5.28-12.01,14.74-12.01,8.19,0,14.56,2.91,18.01,5.09l4-11.65c-4.91-2.91-12.74-5.46-21.65-5.46-18.92,0-30.39,11.65-30.39,25.84,0,10.55,7.46,19.29,23.29,24.93,11.83,4.37,16.38,8.55,16.38,16.19s-5.46,13.1-17.1,13.1c-8.01,0-16.38-3.28-21.11-6.37l-4,12.19c6.19,3.64,15.1,6,24.75,6,20.93,0,32.93-10.92,32.93-26.38,0-13.1-7.82-20.74-23.11-26.57Z"/><polygon class="cls-2" points="414.89 109.36 430.25 109.36 430.25 162.47 414.89 162.47 414.89 178.74 430.25 178.74 430.25 179.03 446.08 179.03 446.08 178.74 461.77 178.74 461.77 162.47 446.08 162.47 446.08 109.36 461.77 109.36 461.77 93.1 414.89 93.1 414.89 109.36"/><path class="cls-4" d="m170.27,156.6s-90.36,43.07-46.43,124.12c0,0-39.97-39.26-.43-98.11"/><path class="cls-3" d="m146.42,110.6c-1.54-19.15-21.48-20.88-32.78-20.3-1.38.29-2.77.65-4.16,1.1-20.63,6.63-75.22,12.7-109.47-6.5,0,0,22.04,24.81,58.57,30.89l-21.67,2.02s24.07,19.96,78.42,18.39c15.79-2.98,33.25,1.19,31.1-25.59Z"/><path class="cls-6" d="m170.27,108.25c-.68,27.63-5.77,45.06-11.45,55.98,1.84-1.22,3.7-2.42,5.62-3.59.02-.01.03-.02.05-.03,32.05-19.58,27.81-56.91,25.4-68.86-1.88-9.28-.36-20.09.41-24.45.85-5.81,4.2-12.02,7.82-16.41,5.03-6.09,13.58-5.95,13.58-5.95,0,0-39.82-2.24-41.43,63.3Z"/><text class="cls-7" transform="translate(433.94 259.97)"><tspan x="0" y="0">BE</tspan><tspan class="cls-1" x="90.32" y="0">T</tspan><tspan x="125.96" y="0">A</tspan></text></svg>